<?xml version="1.0" encoding="UTF-8" standalone="no"?>
<svg xmlns="http://www.w3.org/2000/svg" width="200" height="60" viewBox="0 0 200 60">
  <style>
    .text-primary { fill: #3498db; }
    .text-secondary { fill: #2c3e50; }
    .icon { fill: #3498db; }
  </style>
  
  <!-- Logo Icon -->
  <g transform="translate(10, 10)">
    <path class="icon" d="M20,0 C31.046,0 40,8.954 40,20 C40,31.046 31.046,40 20,40 C8.954,40 0,31.046 0,20 C0,8.954 8.954,0 20,0 Z M20,5 C11.716,5 5,11.716 5,20 C5,28.284 11.716,35 20,35 C28.284,35 35,28.284 35,20 C35,11.716 28.284,5 20,5 Z" />
    <path class="icon" d="M20,10 L30,20 L20,30 L10,20 L20,10 Z" />
  </g>
  
  <!-- Text "SNK" -->
  <g transform="translate(60, 25)">
    <text class="text-primary" font-family="Arial, sans-serif" font-weight="700" font-size="24">
      SNK
    </text>
  </g>
  
  <!-- Text "BLOG" -->
  <g transform="translate(120, 25)">
    <text class="text-secondary" font-family="Arial, sans-serif" font-weight="400" font-size="24">
      BLOG
    </text>
  </g>
</svg> 